PathFileType	4	(X/Y/Z)	C:\Users\86182\Documents\cortex\Trimmed_M1_H2.trc
DataRate	CameraRate	NumFrames	NumMarkers	Units	OrigDataRate	OrigDataStartFrame	OrigNumFrames
100.00	100.00	      56	2	mm	100.00	801	      1001
Frame#	Time	gripper			box			
		X1	Y1	Z1	X2	Y2	Z2	

801	8.000	200.35889	196.27452	292.66687	201.03371	195.23564	149.32642	
802	8.010	200.36342	196.27419	292.66516	201.03731	195.23604	149.32501	
803	8.020	200.36909	196.27414	292.66327	201.04114	195.23657	149.32431	
804	8.030	200.37515	196.27440	292.66122	201.04584	195.23708	149.32355	
805	8.040	200.38054	196.27487	292.65924	201.05141	195.23737	149.32224	
806	8.050	200.38423	196.27539	292.65762	201.05736	195.23740	149.32013	
807	8.060	200.38560	196.27582	292.65649	201.06343	195.23735	149.31680	
808	8.070	200.38461	196.27614	292.65594	201.06981	195.23772	149.31134	
809	8.080	200.38196	196.27644	292.65588	201.07683	195.23914	149.30240	
810	8.090	200.37840	196.27681	292.65643	201.08443	195.24237	149.28833	
811	8.100	200.37422	196.27710	292.65741	201.09212	195.24808	149.26765	
812	8.110	200.36922	196.27713	292.65875	201.09889	195.25671	149.23959	
813	8.120	200.36333	196.27675	292.66058	201.10353	195.26834	149.20471	
814	8.130	200.35690	196.27580	292.66293	201.10556	195.28241	149.16530	
815	8.140	200.35046	196.27419	292.66580	201.10541	195.29779	149.12531	
816	8.150	200.34413	196.27194	292.66876	201.10396	195.31285	149.08925	
817	8.160	200.33775	196.26921	292.67139	201.10187	195.32593	149.06042	
818	8.170	200.33127	196.26614	292.67316	201.09949	195.33607	149.03986	
819	8.180	200.32497	196.26312	292.67413	201.09703	195.34314	149.02689	
820	8.190	200.31938	196.26074	292.67453	201.09473	195.34753	149.01990	
821	8.200	200.31528	196.25977	292.67462	201.09296	195.34979	149.01712	
822	8.210	200.31331	196.26064	292.67456	201.09207	195.35049	149.01709	
823	8.220	200.31340	196.26320	292.67456	201.09218	195.35013	149.01854	
824	8.230	200.31488	196.26672	292.67484	201.09302	195.34921	149.02060	
825	8.240	200.31688	196.27023	292.67554	201.09445	195.34804	149.02271	
826	8.250	200.31851	196.27292	292.67676	201.09633	195.34679	149.02460	
827	8.260	200.31918	196.27443	292.67859	201.09814	195.34570	149.02606	
828	8.270	200.31882	196.27496	292.68085	201.09932	195.34497	149.02701	
829	8.280	200.31772	196.27492	292.68307	201.09944	195.34471	149.02740	
830	8.290	200.31653	196.27463	292.68488	201.09848	195.34489	149.02734	
831	8.300	200.31627	196.27438	292.68594	201.09680	195.34535	149.02698	
832	8.310	200.31770	196.27426	292.68607	201.09496	195.34590	149.02652	
833	8.320	200.32086	196.27423	292.68533	201.09323	195.34642	149.02605	
834	8.330	200.32523	196.27423	292.68414	201.09123	195.34708	149.02548	
835	8.340	200.32993	196.27423	292.68301	201.08813	195.34818	149.02463	
836	8.350	200.33408	196.27431	292.68237	201.08310	195.35004	149.02319	
837	8.360	200.33728	196.27449	292.68219	201.07530	195.35304	149.02094	
838	8.370	200.33961	196.27473	292.68222	201.06412	195.35747	149.01767	
839	8.380	200.34113	196.27490	292.68216	201.04988	195.36327	149.01340	
840	8.390	200.34177	196.27493	292.68195	201.03410	195.36995	149.00848	
841	8.400	200.34164	196.27487	292.68164	201.01866	195.37680	149.00352	
842	8.410	200.34091	196.27481	292.68146	201.00504	195.38316	148.99896	
843	8.420	200.33943	196.27487	292.68167	200.99388	195.38866	148.99513	
844	8.430	200.33701	196.27512	292.68262	200.98526	195.39314	148.99207	
845	8.440	200.33380	196.27551	292.68436	200.97890	195.39665	148.98978	
846	8.450	200.33035	196.27597	292.68665	200.97446	195.39926	148.98813	
847	8.460	200.32707	196.27640	292.68918	200.97145	195.40114	148.98700	
848	8.470	200.32390	196.27672	292.69156	200.96939	195.40251	148.98621	
849	8.480	200.32051	196.27696	292.69360	200.96785	195.40356	148.98563	
850	8.490	200.31662	196.27718	292.69519	200.96661	195.40442	148.98514	
851	8.500	200.31226	196.27736	292.69629	200.96555	195.40514	148.98473	
852	8.510	200.30797	196.27750	292.69678	200.96457	195.40576	148.98434	
853	8.520	200.30481	196.27757	292.69641	200.96376	195.40628	148.98404	
854	8.530	200.30409	196.27759	292.69513	200.96317	195.40666	148.98383	
855	8.540	200.30682	196.27753	292.69290	200.96283	195.40694	148.98376	
856	8.550	200.31314	196.27751	292.69012	200.96277	195.40710	148.98389	
